<svg xmlns="http://www.w3.org/2000/svg" width="760" height="420" viewBox="0 0 760 420" font-family="sans-serif">
  <rect width="760" height="420" fill="white"/>
  <text x="402" y="26" font-size="16" font-weight="bold" text-anchor="middle">run_migration_chunks: mean time vs threads</text>
  <line x1="64" y1="356.0" x2="740" y2="356.0" stroke="#e6e6e6"/>
  <text x="56" y="356.0" font-size="11" text-anchor="end" dominant-baseline="middle">0.00</text>
  <line x1="64" y1="294.4" x2="740" y2="294.4" stroke="#e6e6e6"/>
  <text x="56" y="294.4" font-size="11" text-anchor="end" dominant-baseline="middle">11.34</text>
  <line x1="64" y1="232.8" x2="740" y2="232.8" stroke="#e6e6e6"/>
  <text x="56" y="232.8" font-size="11" text-anchor="end" dominant-baseline="middle">22.68</text>
  <line x1="64" y1="171.2" x2="740" y2="171.2" stroke="#e6e6e6"/>
  <text x="56" y="171.2" font-size="11" text-anchor="end" dominant-baseline="middle">34.02</text>
  <line x1="64" y1="109.6" x2="740" y2="109.6" stroke="#e6e6e6"/>
  <text x="56" y="109.6" font-size="11" text-anchor="end" dominant-baseline="middle">45.37</text>
  <line x1="64" y1="48.0" x2="740" y2="48.0" stroke="#e6e6e6"/>
  <text x="56" y="48.0" font-size="11" text-anchor="end" dominant-baseline="middle">56.71</text>
  <line x1="64" y1="48" x2="64" y2="356" stroke="#333"/>
  <line x1="64" y1="356" x2="740" y2="356" stroke="#333"/>
  <line x1="64.0" y1="356" x2="64.0" y2="360" stroke="#333"/>
  <text x="64.0" y="374" font-size="10" text-anchor="middle">1</text>
  <line x1="99.6" y1="356" x2="99.6" y2="360" stroke="#333"/>
  <text x="99.6" y="374" font-size="10" text-anchor="middle">2</text>
  <line x1="135.2" y1="356" x2="135.2" y2="360" stroke="#333"/>
  <text x="135.2" y="374" font-size="10" text-anchor="middle">3</text>
  <line x1="170.7" y1="356" x2="170.7" y2="360" stroke="#333"/>
  <text x="170.7" y="374" font-size="10" text-anchor="middle">4</text>
  <line x1="206.3" y1="356" x2="206.3" y2="360" stroke="#333"/>
  <text x="206.3" y="374" font-size="10" text-anchor="middle">5</text>
  <line x1="241.9" y1="356" x2="241.9" y2="360" stroke="#333"/>
  <text x="241.9" y="374" font-size="10" text-anchor="middle">6</text>
  <line x1="277.5" y1="356" x2="277.5" y2="360" stroke="#333"/>
  <text x="277.5" y="374" font-size="10" text-anchor="middle">7</text>
  <line x1="313.1" y1="356" x2="313.1" y2="360" stroke="#333"/>
  <text x="313.1" y="374" font-size="10" text-anchor="middle">8</text>
  <line x1="348.6" y1="356" x2="348.6" y2="360" stroke="#333"/>
  <text x="348.6" y="374" font-size="10" text-anchor="middle">9</text>
  <line x1="384.2" y1="356" x2="384.2" y2="360" stroke="#333"/>
  <text x="384.2" y="374" font-size="10" text-anchor="middle">10</text>
  <line x1="419.8" y1="356" x2="419.8" y2="360" stroke="#333"/>
  <text x="419.8" y="374" font-size="10" text-anchor="middle">11</text>
  <line x1="455.4" y1="356" x2="455.4" y2="360" stroke="#333"/>
  <text x="455.4" y="374" font-size="10" text-anchor="middle">12</text>
  <line x1="490.9" y1="356" x2="490.9" y2="360" stroke="#333"/>
  <text x="490.9" y="374" font-size="10" text-anchor="middle">13</text>
  <line x1="526.5" y1="356" x2="526.5" y2="360" stroke="#333"/>
  <text x="526.5" y="374" font-size="10" text-anchor="middle">14</text>
  <line x1="562.1" y1="356" x2="562.1" y2="360" stroke="#333"/>
  <text x="562.1" y="374" font-size="10" text-anchor="middle">15</text>
  <line x1="597.7" y1="356" x2="597.7" y2="360" stroke="#333"/>
  <text x="597.7" y="374" font-size="10" text-anchor="middle">16</text>
  <line x1="633.3" y1="356" x2="633.3" y2="360" stroke="#333"/>
  <text x="633.3" y="374" font-size="10" text-anchor="middle">17</text>
  <line x1="668.8" y1="356" x2="668.8" y2="360" stroke="#333"/>
  <text x="668.8" y="374" font-size="10" text-anchor="middle">18</text>
  <line x1="704.4" y1="356" x2="704.4" y2="360" stroke="#333"/>
  <text x="704.4" y="374" font-size="10" text-anchor="middle">19</text>
  <line x1="740.0" y1="356" x2="740.0" y2="360" stroke="#333"/>
  <text x="740.0" y="374" font-size="10" text-anchor="middle">20</text>
  <text x="402" y="408" font-size="12" text-anchor="middle">threads</text>
  <text x="16" y="202" font-size="12" text-anchor="middle" transform="rotate(-90 16 202)">seconds (mean)</text>
  <polyline fill="none" stroke="#2ca02c" stroke-width="2" points="64.0,62.7 99.6,202.3 135.2,248.3 170.7,272.3 206.3,285.8 241.9,294.9 277.5,302.4 313.1,322.0 348.6,339.7 384.2,343.8 419.8,344.5 455.4,344.7 490.9,344.7 526.5,344.4 562.1,344.5 597.7,344.6 633.3,345.1 668.8,344.7 704.4,344.6 740.0,344.7 "/>
  <polyline fill="none" stroke="#1f77b4" stroke-width="2" points="64.0,63.7 99.6,203.3 135.2,249.3 170.7,273.3 206.3,286.8 241.9,295.9 277.5,303.4 313.1,323.0 348.6,340.7 384.2,344.9 419.8,345.6 455.4,345.7 490.9,345.8 526.5,345.5 562.1,345.6 597.7,345.7 633.3,346.2 668.8,345.8 704.4,345.6 740.0,345.8 "/>
  <polyline fill="none" stroke="#d62728" stroke-width="2" points="64.0,355.0 99.6,355.0 135.2,355.0 170.7,355.0 206.3,355.0 241.9,355.0 277.5,355.0 313.1,355.0 348.6,355.0 384.2,354.9 419.8,354.9 455.4,354.9 490.9,354.9 526.5,354.9 562.1,354.9 597.7,354.9 633.3,354.9 668.8,354.9 704.4,354.9 740.0,354.9 "/>
  <circle cx="64.0" cy="62.7" r="3" fill="#2ca02c"/>
  <circle cx="64.0" cy="63.7" r="3" fill="#1f77b4"/>
  <circle cx="64.0" cy="355.0" r="3" fill="#d62728"/>
  <circle cx="99.6" cy="202.3" r="3" fill="#2ca02c"/>
  <circle cx="99.6" cy="203.3" r="3" fill="#1f77b4"/>
  <circle cx="99.6" cy="355.0" r="3" fill="#d62728"/>
  <circle cx="135.2" cy="248.3" r="3" fill="#2ca02c"/>
  <circle cx="135.2" cy="249.3" r="3" fill="#1f77b4"/>
  <circle cx="135.2" cy="355.0" r="3" fill="#d62728"/>
  <circle cx="170.7" cy="272.3" r="3" fill="#2ca02c"/>
  <circle cx="170.7" cy="273.3" r="3" fill="#1f77b4"/>
  <circle cx="170.7" cy="355.0" r="3" fill="#d62728"/>
  <circle cx="206.3" cy="285.8" r="3" fill="#2ca02c"/>
  <circle cx="206.3" cy="286.8" r="3" fill="#1f77b4"/>
  <circle cx="206.3" cy="355.0" r="3" fill="#d62728"/>
  <circle cx="241.9" cy="294.9" r="3" fill="#2ca02c"/>
  <circle cx="241.9" cy="295.9" r="3" fill="#1f77b4"/>
  <circle cx="241.9" cy="355.0" r="3" fill="#d62728"/>
  <circle cx="277.5" cy="302.4" r="3" fill="#2ca02c"/>
  <circle cx="277.5" cy="303.4" r="3" fill="#1f77b4"/>
  <circle cx="277.5" cy="355.0" r="3" fill="#d62728"/>
  <circle cx="313.1" cy="322.0" r="3" fill="#2ca02c"/>
  <circle cx="313.1" cy="323.0" r="3" fill="#1f77b4"/>
  <circle cx="313.1" cy="355.0" r="3" fill="#d62728"/>
  <circle cx="348.6" cy="339.7" r="3" fill="#2ca02c"/>
  <circle cx="348.6" cy="340.7" r="3" fill="#1f77b4"/>
  <circle cx="348.6" cy="355.0" r="3" fill="#d62728"/>
  <circle cx="384.2" cy="343.8" r="3" fill="#2ca02c"/>
  <circle cx="384.2" cy="344.9" r="3" fill="#1f77b4"/>
  <circle cx="384.2" cy="354.9" r="3" fill="#d62728"/>
  <circle cx="419.8" cy="344.5" r="3" fill="#2ca02c"/>
  <circle cx="419.8" cy="345.6" r="3" fill="#1f77b4"/>
  <circle cx="419.8" cy="354.9" r="3" fill="#d62728"/>
  <circle cx="455.4" cy="344.7" r="3" fill="#2ca02c"/>
  <circle cx="455.4" cy="345.7" r="3" fill="#1f77b4"/>
  <circle cx="455.4" cy="354.9" r="3" fill="#d62728"/>
  <circle cx="490.9" cy="344.7" r="3" fill="#2ca02c"/>
  <circle cx="490.9" cy="345.8" r="3" fill="#1f77b4"/>
  <circle cx="490.9" cy="354.9" r="3" fill="#d62728"/>
  <circle cx="526.5" cy="344.4" r="3" fill="#2ca02c"/>
  <circle cx="526.5" cy="345.5" r="3" fill="#1f77b4"/>
  <circle cx="526.5" cy="354.9" r="3" fill="#d62728"/>
  <circle cx="562.1" cy="344.5" r="3" fill="#2ca02c"/>
  <circle cx="562.1" cy="345.6" r="3" fill="#1f77b4"/>
  <circle cx="562.1" cy="354.9" r="3" fill="#d62728"/>
  <circle cx="597.7" cy="344.6" r="3" fill="#2ca02c"/>
  <circle cx="597.7" cy="345.7" r="3" fill="#1f77b4"/>
  <circle cx="597.7" cy="354.9" r="3" fill="#d62728"/>
  <circle cx="633.3" cy="345.1" r="3" fill="#2ca02c"/>
  <circle cx="633.3" cy="346.2" r="3" fill="#1f77b4"/>
  <circle cx="633.3" cy="354.9" r="3" fill="#d62728"/>
  <circle cx="668.8" cy="344.7" r="3" fill="#2ca02c"/>
  <circle cx="668.8" cy="345.8" r="3" fill="#1f77b4"/>
  <circle cx="668.8" cy="354.9" r="3" fill="#d62728"/>
  <circle cx="704.4" cy="344.6" r="3" fill="#2ca02c"/>
  <circle cx="704.4" cy="345.6" r="3" fill="#1f77b4"/>
  <circle cx="704.4" cy="354.9" r="3" fill="#d62728"/>
  <circle cx="740.0" cy="344.7" r="3" fill="#2ca02c"/>
  <circle cx="740.0" cy="345.8" r="3" fill="#1f77b4"/>
  <circle cx="740.0" cy="354.9" r="3" fill="#d62728"/>
  <line x1="76" y1="60" x2="96" y2="60" stroke="#2ca02c" stroke-width="2"/><text x="102" y="60" font-size="12" dominant-baseline="middle">total</text>
  <line x1="76" y1="78" x2="96" y2="78" stroke="#1f77b4" stroke-width="2"/><text x="102" y="78" font-size="12" dominant-baseline="middle">chunk run</text>
  <line x1="76" y1="96" x2="96" y2="96" stroke="#d62728" stroke-width="2"/><text x="102" y="96" font-size="12" dominant-baseline="middle">range calc</text>
</svg>
